<svg xmlns="http://www.w3.org/2000/svg" width="571.34656" height="566.88086" x="0px" y="0px" viewBox="0 0 571.34656 566.88086"><path fill="none" d="M-4.471-5.548h582.09v579.001H-4.47z" style="fill:#02021a;fill-opacity:0"/><path d="M13078.701 8626.93a3209.657 3204.438 0 0 1-3209.657 3204.437A3209.657 3204.438 0 0 1 6659.387 8626.93a3209.657 3204.438 0 0 1 3209.657-3204.438A3209.657 3204.438 0 0 1 13078.7 8626.93" style="fill:#fff;stroke-width:13.2292" transform="matrix(.08756 0 0 .08756 -580.672 -470.777)"/><g fill="none" class="com.sun.star.drawing.ClosedBezierShape"><path d="M0 0h571.347v566.88H0Z" class="BoundingBox"/><path stroke="#091f62" stroke-width="6.21676" d="M568.107 283.353c0 154.898-126.44 280.288-282.477 280.288S3.152 438.251 3.152 283.353c0-154.81 126.44-280.2 282.478-280.2 156.036 0 282.477 125.39 282.477 280.2z"/></g><g class="Group"><g class="com.sun.star.drawing.ClosedBezierShape"><path fill="none" d="M60.769 60.33h223.197v446.22H60.769Z" class="BoundingBox"/><path fill="#fff" d="M63.92 283.44c0 119.874 96.582 217.244 216.806 219.783V63.57C160.502 66.11 63.921 163.48 63.921 283.44"/><path fill="none" stroke="#091f62" stroke-width="6.21676" d="M63.92 283.44c0 119.874 96.582 217.244 216.806 219.783V63.57C160.502 66.11 63.921 163.48 63.921 283.44Z"/></g><g class="com.sun.star.drawing.ClosedBezierShape"><path fill="none" d="M277.574 60.33h233.004v446.308H277.574Z" class="BoundingBox"/><path fill="#091f62" d="M507.338 283.44c0-121.537-99.296-219.957-221.796-219.957-1.576 0-3.24 0-4.816.088v439.74c1.576 0 3.24.087 4.816.087 122.5 0 221.796-98.42 221.796-219.958"/><path fill="none" stroke="#091f62" stroke-width="6.21676" d="M507.338 283.44c0-121.537-99.296-219.957-221.796-219.957-1.576 0-3.24 0-4.816.088v439.74c1.576 0 3.24.087 4.816.087 122.5 0 221.796-98.42 221.796-219.958z"/></g></g><g class="Group"><g fill="none" class="com.sun.star.drawing.OpenBezierShape"><path d="M163.392 62.782h123.2v436.325h-123.2Z" class="BoundingBox"/><path stroke="#091f62" stroke-width="6.21676" d="M282.565 65.322s-262.25 192.813 1.751 431.334"/></g><g fill="none" class="com.sun.star.drawing.OpenBezierShape"><path d="M89.226 60.506h198.855v444.03H89.226Z" class="BoundingBox"/><path stroke="#091f62" stroke-width="6.21676" d="M283.528 63.483s-192.025 64.534-191.15 227.05c3.503 28.545 6.218 150.083 194.653 210.939"/></g><g fill="none" class="com.sun.star.drawing.LineShape"><path d="M94.13 173.374H278.1v6.392H94.13Z" class="BoundingBox"/><path stroke="#091f62" stroke-width="6.21676" d="M94.13 176.526h183.882"/></g><g fill="none" class="com.sun.star.drawing.LineShape"><path d="M65.672 282.565h215.93v6.392H65.672Z" class="BoundingBox"/><path stroke="#091f62" stroke-width="6.21676" d="M65.672 285.717h215.842"/></g><g fill="none" class="com.sun.star.drawing.LineShape"><path d="M94.13 390.88h187.472v6.392H94.13Z" class="BoundingBox"/><path stroke="#091f62" stroke-width="6.21676" d="M94.13 394.032h187.384"/></g></g><g fill="none" class="com.sun.star.drawing.OpenBezierShape"><path d="M280.113 63.658h122.675v440.878H280.113Z" class="BoundingBox"/><path stroke="#fff" stroke-linecap="round" stroke-linejoin="round" stroke-width="6.21676" d="M284.666 66.81s259.361 194.915-1.4 434.486"/></g><g fill="none" class="com.sun.star.drawing.OpenBezierShape"><path d="M279.062 62.607h203.759v443.068H279.062Z" class="BoundingBox"/><path stroke="#fff" stroke-linecap="round" stroke-linejoin="round" stroke-width="6.21676" d="M283.966 65.76s196.49 61.03 195.615 224.248c-3.503 28.633-11.296 151.308-197.366 212.427"/></g><g fill="none" class="com.sun.star.drawing.LineShape"><path d="M277.136 173.199h206.91v6.392h-206.91Z" class="BoundingBox"/><path stroke="#fff" stroke-width="6.21676" d="M483.96 176.351H277.135"/></g><g fill="none" class="com.sun.star.drawing.LineShape"><path d="M277.661 282.477h237.033v6.392H277.66Z" class="BoundingBox"/><path stroke="#fff" stroke-width="6.21676" d="M514.606 285.63H277.661"/></g><g fill="none" class="com.sun.star.drawing.LineShape"><path d="M277.136 390.792h204.722v6.392H277.136Z" class="BoundingBox"/><path stroke="#fff" stroke-width="6.21676" d="M481.77 393.945H277.136"/></g><g class="Group"><g class="Group"><g class="com.sun.star.drawing.ClosedBezierShape"><path fill="none" d="M96.056 93.342H486.85v374.68H96.056Z" class="BoundingBox"/><path fill="#ffec00" d="M486.674 294.298c-9.808.963-58.667 0-58.667 0V126.09s-40.805-36.951-61.294-32.31v37.039s-95.97-56.916-193.69 3.852c-13.396 6.655-121.624 90.19-56.04 242.286 17.776 27.583 98.684 137.737 258.661 68.387v15.236s33.712-17.162 56.828-39.929c1.751-13.31 0-70.313 0-70.313h43.519s10.683-26.531 10.683-56.04m-302.18-110.241c90.628-81.696 183.094-10.42 183.094-10.42l3.59 124.514h-61.294v-79.945l-65.847.963v79.858h-93.254c-3.59-76.005 26.62-108.315 33.712-114.97m191.15 188.172s-106.739 95.006-200.869-16.199h200.869z"/></g></g><g class="Group"><g fill="none" class="com.sun.star.drawing.OpenBezierShape"><path d="M427.919 292.635h59.192v3.852H427.92z" class="BoundingBox"/><path stroke="#1b1918" stroke-width="3.0646" d="M486.761 294.21c-9.72 1.314-58.754 0-58.754 0"/></g><g fill="none" class="com.sun.star.drawing.LineShape"><path d="M426.43 126.09h3.24v168.208h-3.24z" class="BoundingBox"/><path stroke="#1b1918" stroke-width="3.0646" d="M428.007 294.21V126.09"/></g><g fill="none" class="com.sun.star.drawing.OpenBezierShape"><path d="M366.362 91.766h62.87v35.725h-62.87z" class="BoundingBox"/><path stroke="#1b1918" stroke-width="3.0646" d="M428.094 126.265s-40.98-37.126-61.381-32.485"/></g><g fill="none" class="com.sun.star.drawing.LineShape"><path d="M365.136 93.692h3.24v37.127h-3.24z" class="BoundingBox"/><path stroke="#1b1918" stroke-width="3.0646" d="M366.713 93.692v37.04"/></g><g fill="none" class="com.sun.star.drawing.OpenBezierShape"><path d="M94.48 104.988h281.952V469.51H94.48Z" class="BoundingBox"/><path stroke="#1b1918" stroke-width="3.0646" d="M366.713 130.731s-95.882-56.916-193.69 3.853c-13.396 6.655-121.624 90.19-56.04 242.286 17.776 27.582 98.684 137.736 258.661 68.386"/></g><g fill="none" class="com.sun.star.drawing.LineShape"><path d="M373.98 445.169h3.24v15.236h-3.24z" class="BoundingBox"/><path stroke="#1b1918" stroke-width="3.0646" d="M375.556 445.169v15.148"/></g><g fill="none" class="com.sun.star.drawing.OpenBezierShape"><path d="M374.856 350.163h60.068v111.818h-60.068z" class="BoundingBox"/><path stroke="#1b1918" stroke-width="3.0646" d="M375.556 460.492s33.8-17.074 56.916-39.928c1.751-13.31 0-70.313 0-70.313"/></g><g fill="none" class="com.sun.star.drawing.LineShape"><path d="M432.385 348.675h43.606v3.24h-43.606z" class="BoundingBox"/><path stroke="#1b1918" stroke-width="3.0646" d="M432.385 350.25h43.518"/></g><g fill="none" class="com.sun.star.drawing.OpenBezierShape"><path d="M474.415 294.21h13.922v56.829h-13.922z" class="BoundingBox"/><path stroke="#1b1918" stroke-width="3.0646" d="M475.903 350.338s10.77-26.619 10.77-56.127"/></g><g fill="none" class="com.sun.star.drawing.OpenBezierShape"><path d="M183.531 143.165h185.196v42.205H183.53Z" class="BoundingBox"/><path stroke="#1b1918" stroke-width="3.0646" d="M184.582 184.057c90.628-81.871 183.094-10.508 183.094-10.508"/></g><g fill="none" class="com.sun.star.drawing.PolyLineShape"><path d="M150.783 173.462H372.93V300.69H150.783Z" class="BoundingBox"/><path stroke="#1b1918" stroke-width="3.0646" d="m367.588 173.55 3.59 124.601h-61.294v-79.945l-65.847.963v79.858h-93.254"/></g><g fill="none" class="com.sun.star.drawing.OpenBezierShape"><path d="M148.944 182.83h36.952v116.372h-36.952z" class="BoundingBox"/><path stroke="#1b1918" stroke-width="3.0646" d="M150.783 299.027c-3.503-76.092 26.794-108.49 33.887-115.058"/></g><g fill="none" class="com.sun.star.drawing.OpenBezierShape"><path d="M173.55 354.892h203.232v56.74H173.55Z" class="BoundingBox"/><path stroke="#1b1918" stroke-width="3.0646" d="M375.644 372.054s-106.651 95.18-200.869-16.112"/></g><g fill="none" class="com.sun.star.drawing.PolyLineShape"><path d="M174.775 354.366h202.533v17.863H174.775Z" class="BoundingBox"/><path stroke="#1b1918" stroke-width="3.0646" d="M174.775 355.942h200.869v16.2"/></g></g></g><g class="com.sun.star.drawing.ClosedBezierShape"><path fill="none" d="M112.693 459.967h44.482v52.45h-44.482z" class="BoundingBox"/><path fill="#091f62" d="m141.589 483.259 3.678-1.314.788.613q1.182 3.678 1.05 4.991c-.087.7-.437.788-1.226.263l-5.078-3.853-4.816 7.093 3.853 2.89 3.765-1.227.788.613q1.444 3.678 1.313 4.991c-.087.964-.35 1.139-.963.613l-9.281-7.092-6.13 9.194 7.443 5.691 4.466-1.226.525.438c.876 2.627 1.226 4.466 1.138 5.517-.087.788-.35 1.05-.963.525l-25.48-19.526-3.678-2.54.525-1.4 3.59 2.976 8.494 6.48 6.13-9.106-5.517-4.291-3.328-2.19.613-1.4 2.977 2.627 5.867 4.466 4.729-7.18-2.627-2.015-3.065-2.101.35-.788h-4.903c-1.664-.088-3.503-.263-5.342-.35l.175-.876c4.816-.263 9.808-1.313 14.974-3.24 3.765-1.313 6.567-2.627 8.406-3.765l-5.43-4.203-3.327-2.19.613-1.4 3.065 2.627 5.954 4.553 2.977-1.664.789.613c1.663 2.54 2.364 4.29 2.101 5.166-.263.701-1.313.964-3.327.789.875 4.465 1.838 8.143 2.89 11.12 1.75 5.079 3.764 8.494 5.954 10.42l-.438.876c-.788-.176-1.489-.263-2.277-.088a7 7 0 0 0-1.751.613c-.613.175-.963.263-1.226.35q-.525 0-.788-.262c-1.576-2.365-2.715-5.78-3.415-10.158-.788-4.553-.876-8.668-.175-12.259-1.576.701-3.678 1.314-6.392 2.014-3.24.7-6.042 1.139-8.406 1.226l1.926 1.664z"/></g><g class="com.sun.star.drawing.ClosedBezierShape"><path fill="none" d="M188.523 499.107h44.744v45.183h-44.744z" class="BoundingBox"/><path fill="#091f62" d="M200.256 506.988a15 15 0 0 1 2.014 2.19l8.056 2.976 2.014-5.866-11.909-4.291-4.378-1.313.35-1.577 5.079 2.014 11.208 4.203c.525-1.75.963-2.977 1.138-3.765.175-.875.263-1.4.175-1.664l.35-.612c3.153 1.75 4.904 3.064 5.342 4.027.35.876-.175 1.314-1.664 1.401l-.875 2.277 9.106 3.415 3.24-2.277.788.263c1.664 2.277 2.54 3.765 2.802 4.64.087.789-.35.964-1.226.614l-15.06-5.604-1.927 5.779 7.18 2.714 2.102-1.313.788.263c2.276 2.014 3.59 3.502 3.765 4.553.087.963-.526 1.488-2.014 1.839-.438.963-.963 2.627-1.751 4.903l-2.102 6.305-1.751 5.516c-.788 2.364-1.751 4.028-2.89 4.816-.875.613-2.276.876-4.115.7-.526-.087-.876-.262-1.05-.7-.088-.263-.176-.7-.264-1.4-.175-.964-.35-1.752-.613-2.365q-.525-1.575-2.101-2.89l.35-.788c1.751 1.051 3.065 1.664 4.028 1.664 1.138 0 1.926-.7 2.364-2.19l5.955-17.512-7.268-2.714c2.101 1.751 3.327 2.977 3.415 3.678.175.613-.526.875-2.19.7-.875.263-1.663.525-2.451.876-.876.35-1.751.788-2.627 1.4l2.014.789 2.102-2.014.875.35c1.226 1.839 1.927 3.065 1.927 3.765 0 .526-.438.7-1.401.35l-5.692-2.189-1.926 5.604 3.064 1.051 2.802-2.101.788.35c.964 2.014 1.401 3.24 1.314 3.853-.088.525-.526.7-1.489.35l-6.742-2.54q-1.314 4.335-1.839 5.78-.788 2.233-1.313 3.152c-.438.613-.964.963-1.489.963-.438.088-1.05 0-1.926-.262-.526-.263-.876-.438-.964-.613-.175-.263-.262-.613-.175-1.226.175-.526.35-1.401.788-2.715.263-.788.876-2.451 1.84-4.903l.612-1.751-4.203-1.577-3.065-1.138.263-1.226 2.802 1.226 4.641 1.664 1.926-5.604-2.977-1.051-2.977-.963.175-1.401 2.89 1.226c-.088-.088-.088-.175-.088-.175v-.176c0-.437 0-.875.088-1.4.087-.263.175-.701.35-1.314q.394-1.314.525-2.101c.176-.789.176-1.664.088-2.452l-3.853-1.401-6.217 19.176-.613 1.839c-.788 2.276-1.313 3.59-1.663 3.94-.438.438-1.226.525-2.365.175-1.225-.438-1.838-.875-1.926-1.313 0-.526.263-1.664.963-3.503l1.051-2.89c2.452-7.267 4.203-12.258 5.166-15.323.963-3.24 1.489-5.429 1.489-6.48l.788-.35c.613.263 1.313.788 2.189 1.664m8.406 12.434c-.35.35-.7.7-1.226.876l2.54.963a23.3 23.3 0 0 0 2.364-3.065 33 33 0 0 0 1.838-3.415l-7.355-2.714c.613.788 1.05 1.663 1.489 2.539.525 1.05.788 2.014.875 2.89-.087.788-.262 1.4-.525 1.926"/></g><g class="com.sun.star.drawing.ClosedBezierShape"><path fill="none" d="M263.651 511.366h40.016v42.993h-40.016z" class="BoundingBox"/><path fill="#091f62" d="M278.625 521.786h.963c1.663 1.401 2.714 2.452 3.152 3.24.35.7.263 1.138-.263 1.226l-6.304-.175-.175 4.465c1.926.526 3.502 1.226 4.64 2.19 1.226.963 1.752 2.101 1.752 3.24 0 .7-.263 1.313-.788 1.926-.438.437-.964.788-1.576.875-.613.088-1.051 0-1.489-.35s-.7-.876-.613-1.751c0-.963-.175-1.927-.613-2.802-.35-.788-.788-1.489-1.313-1.927l-.526 17.163-.087 1.138c.087.876-.088 1.489-.263 1.751-.263.438-.963.876-2.101 1.139-1.314.175-2.102.087-2.452-.438-.175-.263-.175-.963 0-1.927l.087-.875.438-11.559c-.613.964-1.576 2.102-2.802 3.415-1.488 1.489-2.89 2.802-4.115 3.59l-.526-.612c1.489-2.19 2.977-5.167 4.641-9.195 1.489-3.677 2.54-6.917 3.065-9.631l-2.277-.088-4.115-.175-.263-1.314 4.116.35 2.714.088.263-7.53c-.438.175-1.401.35-2.977.525-1.577.263-2.89.35-3.853.35l-.263-.7c2.452-.788 4.904-1.839 7.18-2.977 2.19-1.138 3.765-2.19 4.904-3.065h.875l4.729 2.89c.613.438.7.788.438 1.05-.176.263-.964.438-2.19.438-.612.175-1.313.35-2.189.526-.7.175-1.4.262-2.014.35l-.262 8.318.438.088zm19.789-7.88c.525.612.087 1.225-1.314 1.926l-.175 20.402.438-.175 1.226-3.24.7-.175c1.927.613 3.153 1.313 3.853 2.101.525.613.438 1.051-.087 1.314l-6.13 1.4-.087 12.085v1.4c.087.789.087 1.402-.088 1.664-.263.526-.963.963-2.014 1.401-1.4.263-2.364.263-2.802-.175-.175-.175-.263-.7-.175-1.4l.088-.701.262-13.135-9.982 2.102-4.991 1.226-.788-1.314 5.079-.875 10.77-2.277.35-22.153c.088-.789.088-1.401 0-1.752 0-.438-.175-.788-.35-1.05l.438-.613c3.152.613 5.078 1.313 5.779 2.014m-10.333 15.586c1.139 1.138 1.664 2.451 1.664 4.028-.088.612-.438 1.138-.876 1.663-.525.35-1.05.613-1.663.7-.613.088-1.139-.087-1.489-.437-.525-.438-.7-1.05-.7-1.839q0-1.445-.788-3.152c-.613-1.226-1.489-2.19-2.452-2.802l.35-.788c2.714.525 4.64 1.4 5.954 2.627m.7-11.821c1.314.875 2.102 2.101 2.365 3.502.088.613-.175 1.314-.525 1.927-.438.525-.876.963-1.489 1.138-.613.263-1.138.263-1.664.087-.525-.35-.875-.875-.963-1.663-.087-1.226-.438-2.277-1.05-3.24-.701-1.05-1.49-1.926-2.54-2.627l.35-.7q3.547.262 5.517 1.576"/></g><g class="com.sun.star.drawing.ClosedBezierShape"><path fill="none" d="M348.15 495.342h41.329v45.708h-41.33z" class="BoundingBox"/><path fill="#091f62" d="M352.965 507.163q.789-1.444 1.051-2.364c.263-.876.35-1.664.263-2.54l.875-.35c3.153 1.051 4.991 1.927 5.254 2.627.263.438-.438.963-2.101 1.489-.526.263-1.139.613-1.927 1.138-.613.438-1.488.963-2.452 1.576l1.051 3.153.788-.35.7-3.24.701-.263c2.102.7 3.24 1.313 3.59 1.839.263.437 0 .875-.963 1.225l-4.466 1.664 1.577 4.028 1.05-.438.526-3.415.613-.262c2.189.613 3.415 1.226 3.852 1.838.35.526 0 1.051-1.05 1.401l-4.641 1.84 1.488 3.94 19.527-7.443-1.401-4.203-1.664.613-2.276 1.138-.788-1.226 2.714-.876 1.664-.7-1.314-3.94-1.663.7-2.54 1.314-.875-1.226 2.364-.788 2.452-.876-1.577-4.553-1.75.7-2.89 1.314-.789-1.226 2.452-.788 2.19-.788.787-3.24.876-.263c1.401 0 2.54.175 3.503.526.788.262 1.313.613 1.576 1.138.262.35.35.788.087 1.226-.175.35-.525.788-1.05 1.05l4.027 12.084.526-1.226.788-.262c2.714.875 4.203 1.75 4.553 2.627.35.875-.35 1.576-1.926 2.101-.7.35-1.401 1.05-2.102 1.839-.613.788-1.138 1.664-1.664 2.714l-.963-.262c.175-.7.35-1.489.438-2.452.175-1.05.175-1.927.175-2.715l-26.97 10.42a7.5 7.5 0 0 1 1.14 2.19c.35 1.05.35 2.1.087 3.064-.526 1.226-1.139 2.014-1.751 2.452-.613.35-1.226.438-1.84.175-.612-.175-1.05-.525-1.4-1.138-.35-.526-.438-1.139-.35-1.927l.262-1.138c.263-1.05.35-1.926.35-2.54 0-1.138-.262-2.188-.875-3.327l.35-.438q.787.132 1.576.526c.438.263.963.525 1.401.875-2.101-5.604-3.59-9.369-4.29-11.295-.7-1.489-1.226-2.627-1.664-3.415l.175-.788zm30.21 13.047.875-.35q4.071.787 4.991 1.576c.613.525.35.963-.7 1.4l-13.748 5.342 1.752 5.254c.437 1.489.437 2.802-.088 4.028q-.92 2.233-4.466 3.415c-.262.087-.613 0-.788-.175a10 10 0 0 1-.788-.876c-.613-.876-1.138-1.4-1.751-1.751-.788-.526-1.839-.7-2.977-.613l-.175-.7c2.626-.789 4.378-1.402 4.99-1.84.701-.525.789-1.313.439-2.451l-.789-2.452-12.959 4.904-4.115 1.838-.788-1.226 5.253-1.838 12.26-4.729c-.351-.963-.614-1.576-.876-1.926-.176-.438-.438-.7-.789-.963l.088-.613c.613-.263 1.401-.438 2.19-.7.875-.176 1.575-.351 2.188-.351.35-.613.7-1.226.963-1.751.176-.526.35-1.051.438-1.576l-11.033 4.203-3.24 1.576-.788-1.314 3.59-1.138 11.646-4.466 1.226-2.101.876-.35c2.714.788 4.29 1.576 4.728 2.276.438.788-.35 1.314-2.452 1.751-.7.526-1.488 1.051-2.189 1.752-.7.613-1.313 1.226-1.75 1.751.174.263.262.525.174.788-.175.263-.35.438-.613.7l.263.701 7.706-2.977zm-14.799-21.278c.613.35.263.963-.788 1.752-.087.175-.087.35-.175.612-.087.263-.175.613-.263.964q1.314.656 1.84 1.576.261.787-.263 1.839c-.35.875-.789 1.4-1.314 1.313-.525 0-1.138-.525-1.926-1.226-.526.7-1.139 1.489-1.84 2.19-.7.7-1.488 1.313-2.188 1.75l-.35-.262c.525-.876.963-1.751 1.4-2.54.438-1.138.789-2.013.876-2.714-.35-.263-.963-.525-1.576-.876-.525-.175-1.138-.437-1.751-.613v-.612c.613-.176 1.226-.35 1.751-.438.613-.088 1.226-.175 1.751-.088.088-.7.088-1.313 0-1.751-.087-.35-.262-.7-.437-1.138l.262-.438c2.715 0 4.29.262 4.991.7m3.153 9.545c.7.437.525.875-.35 1.313l-.789 2.102.613.437c.7.438 1.05.788 1.139 1.051.087.35 0 .963-.35 1.927-.439.788-.964 1.138-1.664 1.138-.789-.088-1.489-.526-2.014-1.401-.7.875-1.401 1.576-2.19 2.189a13.2 13.2 0 0 1-2.714 2.101l-.438-.437c.613-.876 1.226-1.752 1.927-2.715.7-1.313 1.138-2.189 1.313-2.89-.438-.35-.876-.7-1.488-.963-.526-.262-1.139-.437-1.752-.613l.088-.613c.438-.262 1.05-.35 1.751-.525.788-.087 1.401-.087 2.014-.087.175-.7.263-1.139.263-1.401 0-.35 0-.7-.175-1.051l.087-.438c2.54.088 4.116.35 4.729.876"/></g><g class="com.sun.star.drawing.ClosedBezierShape"><path fill="none" d="M411.282 457.865h47.284v51.137h-47.284z" class="BoundingBox"/><path fill="#091f62" d="M413.734 477.917c.788-.438 1.576-.963 2.276-1.4l9.37-5.955-1.664-2.977-.175-.175-.35-.35c-.176-.088-.263-.088-.438-.088l-.088-.963c2.977-1.752 4.991-2.54 5.867-2.364.7.087.7.7.087 1.838l1.226 2.19 8.406-5.254v-3.766l.876-.612c2.627-.263 4.378-.176 5.166.175.7.35.613.963-.175 1.576l-26.794 17.074q-1.576 1.051-2.89 1.84c-1.05.7-1.751 1.225-2.189 1.575l-.963-1.05c.7-.35 1.489-.788 2.452-1.314m32.573-3.59 1.226-.788c2.714-.35 4.466-.175 5.166.35.613.526.438 1.401-.613 2.715l5.78 10.07c.525.963.7 2.013.437 3.064-.262 1.314-1.226 2.54-2.714 3.853-.263.175-.526.175-.7 0-.176-.088-.351-.263-.614-.613-.525-.613-1.05-1.05-1.488-1.226-.788-.35-1.84-.35-3.065 0l-.263-.7c1.489-.876 2.452-1.576 2.977-2.014.613-.438.876-.788.701-1.051l-5.692-10.42-21.102 13.485 7.443 13.31.175.262c.35.7.438 1.138.35 1.488-.175.526-.788 1.139-1.926 2.102-.788.525-1.314.7-1.576.7-.176 0-.438-.262-.613-.7l-.176-.438-7.88-14.535c-.35-.526-.613-.876-.788-1.139a2.9 2.9 0 0 0-.7-.525l.087-.613c1.138-.263 2.189-.525 3.064-.7.876-.088 1.752-.176 2.452-.263l19.79-12.61zm-11.12-6.655.875-.525c2.452-.263 3.94-.175 4.641.263.525.438.438 1.138-.438 2.014l2.364 4.29.35.526c.351.525.526.875.439 1.225-.088.438-.526 1.051-1.401 1.752-.964.7-1.577 1.05-2.014.963-.263-.088-.613-.438-.964-1.05l-.087-.176-9.632 6.13.175.525c.35.525.525.963.35 1.226-.087.438-.7 1.05-1.663 1.839-.788.7-1.401.963-1.752.875-.175-.087-.437-.438-.7-1.05l-.263-.526-3.59-6.567c-.175-.263-.35-.526-.613-.788-.175-.175-.438-.35-.7-.526l.35-.875 4.816-1.051 8.931-5.692zm-9.194 9.457 2.802 5.079 9.807-6.217L435.8 471zm15.148 6.305.788-.613c2.364-.35 3.765-.35 4.378.087.438.35.35 1.139-.263 2.19l2.102 3.59.35.525c.263.438.438.788.438 1.138-.088.35-.525.963-1.226 1.664-.963.788-1.576 1.138-2.014 1.05-.263 0-.613-.35-.963-1.05v-.175l-5.604 3.59.263.613c.437.7.525 1.138.437 1.488-.087.35-.612.876-1.488 1.752-.788.612-1.314.875-1.664.788-.262-.088-.438-.35-.7-.964l-.263-.613-3.152-5.516c-.35-.613-.613-1.05-.876-1.401-.263-.35-.525-.613-.7-.788l.437-.963 4.466-.7 4.904-3.153zm-4.991 6.742 2.452 4.29 5.604-3.59-2.365-4.378z"/></g><g class="com.sun.star.drawing.ClosedBezierShape"><path fill="none" d="M271.62 26.794h9.194v9.72h-9.194z" class="BoundingBox"/><path fill="#091f62" d="M280.726 31.523c0 2.714-1.926 4.903-4.553 4.903-2.54 0-4.466-2.189-4.466-4.903 0-2.627 1.926-4.729 4.466-4.729 2.627 0 4.553 2.102 4.553 4.729"/></g><g class="com.sun.star.drawing.ClosedBezierShape"><path fill="none" d="M114.357 57.266h49.385v51.224h-49.385z" class="BoundingBox"/><path fill="#091f62" d="m119.698 69.7.876-.613c1.751.088 2.977.175 3.853.525.875.263 1.138.613.7 1.139l-6.48 4.553c-.525.35-1.05.788-1.576 1.138-.262.263-.788.7-1.488 1.226l-.175.175-1.051-.963c.35-.175.876-.525 1.576-.963s1.313-.788 1.839-1.226l2.101-1.401zm3.503 4.028.7-.526c1.139 0 2.014.088 2.715.176.7.175 1.226.35 1.488.612l.263-.963 5.166-1.138 5.692-3.94-2.715-3.853q-1.05-1.707-1.576-2.364a27 27 0 0 0-1.313-1.84l-.175-.35c2.451-1.575 4.027-2.276 4.903-2.276.788 0 1.138.35 1.138 1.226 1.752-.7 3.24-1.05 4.291-.963 1.138.175 1.839.875 2.101 1.926.088.263.088.438.176.613v.613c1.05-.088 1.838.088 2.451.35q.92.394.788 1.051l-6.041 4.115c1.05 1.577 2.101 2.978 3.064 4.291 1.051 1.401 2.014 2.714 2.977 3.853-.262-.963-.525-1.927-.963-2.89-.262-.875-.7-1.664-1.138-2.452l.525-.788c2.715-.7 4.378-.788 5.079-.437q.657.393 0 2.101c.35 1.576.613 3.24.876 4.816.262 1.576.35 3.152.437 4.64.7.701 1.401 1.227 1.927 1.577a4.3 4.3 0 0 0 1.488.7c.088-.437 0-1.313-.087-2.714-.175-1.489-.35-2.54-.613-3.327l1.05-.35c.614 2.451 1.314 4.378 2.015 5.691a7.9 7.9 0 0 0 1.838 2.364c1.226.876 1.84 1.839 1.927 2.89 0 .963-.438 1.663-1.401 2.014-.788.262-1.927.175-3.415-.35-1.576-.526-3.24-1.49-4.991-2.715-.35 2.627-1.051 5.166-2.014 7.355-.963 2.364-2.19 4.466-3.853 6.217l-.613-.438c1.226-1.926 2.102-4.378 2.714-7.355.438-2.714.613-5.604.438-8.756-.525-.526-1.05-1.138-1.75-1.927-.964-1.138-2.54-2.89-4.642-5.34l-.525 1.225c3.327 5.341 5.166 9.457 5.516 12.084.438 2.451-.438 4.378-2.539 5.866-.613-1.05-1.226-1.75-1.926-2.189-.526-.35-1.139-.438-1.84-.35.351 1.926.439 3.94.176 5.867-.175 1.576-.7 3.59-1.401 5.866l-.963-.175.35-2.627-.7.613c-.789.613-1.49.876-1.752.788-.262 0-.613-.35-.963-1.05l-.438-.7-2.189 1.575.613 1.051c.963 1.489 1.401 2.54 1.401 2.977 0 .526-.525 1.139-1.576 2.014-.7.526-1.138.788-1.401.613-.263-.087-.613-.613-1.226-1.664l-.7-1.4-1.401-2.365c-1.489-2.54-2.54-4.29-3.153-5.166-.875-1.313-1.663-2.19-2.276-2.54l.35-.787 4.728-.964 1.84-1.313-.088-2.19.788-.524c2.101-.35 3.502-.35 4.028 0 .525.262.525 1.05 0 2.189.525.875 1.05 1.663 1.576 2.539.35.525.788 1.138 1.313 1.926l1.138 1.576c-.175-1.838-.875-3.94-2.014-6.304-1.138-2.54-2.89-5.692-5.253-9.544l-1.664-2.452c-.963-1.489-1.664-2.54-2.014-3.065-.613-.788-1.138-1.4-1.488-1.664v.263c0 .088-.088.175-.176.35l-7.88 5.517c-.7.438-1.226.875-1.752 1.226-.7.525-1.313 1.138-1.838 1.663l-1.051-1.05c.35-.263.963-.613 1.664-1.051.7-.438 1.4-.876 2.276-1.489l3.59-2.539zm2.54 5.516.7-.438c1.576-.175 2.714 0 3.502.35s1.05.789.876 1.402l-6.042 4.29c-.525.35-1.138.788-1.751 1.314-.613.438-1.139.875-1.664 1.313l-1.138-.963c.437-.263.963-.525 1.576-.963.613-.35 1.4-.788 2.189-1.401l2.014-1.489zm2.801 4.729.788-.526c1.401 0 2.452.175 3.152.438.788.263 1.314.7 1.489 1.226l-7.53 5.341-2.277 1.752-1.05-.964c.437-.262.875-.525 1.4-.788.613-.35 1.139-.7 1.839-1.226l2.364-1.663zm2.014 10.42 3.853 6.392 2.276-1.576-3.94-6.393zm4.64-18.564c.614.964 1.14 1.84 1.665 2.54l2.89-1.927v-2.89l.7-.437c.7.087 1.225.175 1.663.35.613.263 1.139.613 1.752 1.05-.526-.612-1.139-1.575-1.927-2.714a234 234 0 0 1-1.839-2.626l-.35-.526-6.392 4.466c.7 1.05 1.313 1.926 1.839 2.714m5.43 9.457c.875 1.751 1.488 3.415 1.839 4.904.875-.263 1.488-.613 1.75-.964.439-.437.526-1.138.351-1.926-.175-.876-.613-2.014-1.313-3.59-.7-1.489-1.752-3.503-3.24-6.13l-2.627 1.752c1.313 2.101 2.452 4.203 3.24 5.954m3.24-22.504c-.263-.087-.526-.175-.701-.35s-.438-.35-.613-.613c-.438-.525-.876-.963-1.313-1.226q-.92-.787-1.84-1.05c-.087.087-.087.175-.087.262v.088c.438.876.963 1.751 1.664 2.802.438.788 1.05 1.751 1.751 2.802l1.139-.788z"/></g><g class="com.sun.star.drawing.ClosedBezierShape"><path fill="none" d="M196.14 19.877h41.243v45.357H196.14z" class="BoundingBox"/><path fill="#091f62" d="m226.525 29.771.35-.087.963-3.065.788-.263c1.576.176 2.715.526 3.415 1.139.7.438.876.875.613 1.313l-5.867 1.927.176.875c.525 1.576.7 2.54.612 2.977-.175.526-.7 1.051-1.75 1.576-.964.526-1.664.7-2.015.613-.175 0-.35-.175-.438-.613v-.087l-14.097 4.728-.088.175q0 .525-.262.788c-.35.263-.964.613-2.014.876-.964.35-1.576.438-1.84.175-.174-.087-.35-.438-.437-1.138l-.088-.613-.262-1.576-.088-1.051-3.064 1.226-.438-.788c-.35.35-.788.525-1.226.613a2.8 2.8 0 0 1-1.489.175c-1.05-.263-1.663-.788-1.839-1.751-.087-.876.176-1.752.964-2.715.613-1.05.963-2.189 1.138-3.327.088-1.138.088-2.19-.263-2.977l.7-.438c.263.175.439.35.614.613.175.175.35.35.613.7l.525.7 10.157-3.327-.35-1.05c-.175-.613-.35-1.226-.613-1.752a7.4 7.4 0 0 0-.875-1.488l.175-.525c3.327-.789 5.429-.964 6.129-.526.525.263.35 1.05-.525 2.102l.525 1.75 9.895-3.326.7-2.277.788-.175c1.664.438 3.065.875 4.028 1.4.788.439 1.401.964 1.576 1.402.175.35.088.7-.263.963-.262.35-.788.525-1.488.7-.788.088-1.489.438-2.19.876a6.7 6.7 0 0 0-1.575 1.576c.175.263.175.526.087.788-.087.263-.262.526-.525.876zm-4.641-4.115.788-.263c.613.088 1.138.263 1.664.35.437.176.788.263 1.138.438.088-.525.088-1.05.088-1.576 0-.525.087-1.05.087-1.4l-24.78 8.318c.7 1.225 1.05 2.451 1.138 3.677.088 1.139-.175 2.19-.613 2.977l2.627-.788c-.35-1.313-.525-2.189-.7-2.802-.176-.963-.438-1.576-.613-1.926l.613-.7 4.728.35 12.872-4.378zm3.94 10.595.876-.35c2.452.262 3.94.7 4.29 1.313.263.438 0 1.05-.7 2.014.438 1.226.788 2.452 1.226 3.59.175.7.525 1.576.875 2.715.7 1.663.964 2.802.964 3.24-.088.525-.788 1.05-1.927 1.576q-1.445.656-1.839.525c-.262 0-.437-.175-.613-.613v-.175l-12.959 4.378c1.576.175 2.627.438 3.503.7.7.263 1.138.526 1.313.876.088.263 0 .526-.35.788-.263.263-.7.526-1.314.7-1.488 1.227-3.502 2.54-5.779 3.853-2.101 1.226-4.553 2.452-7.355 3.766l-.35-.7c1.926-1.227 3.677-2.715 5.341-4.291 1.664-1.84 2.89-3.503 3.503-5.167l-1.489.526-.087.087c.087.263.087.526-.176.788-.262.35-.963.876-2.014 1.489q-1.445.525-1.838.263c-.175-.175-.35-.526-.526-1.314l-.175-1.05-1.138-4.116a123 123 0 0 0-1.226-4.378c-.438-1.401-.788-2.452-1.138-3.152l.437-.964 4.729.35 15.236-4.99zm-18.213-2.802.613 2.54 4.729-1.577-.613-2.452zm6.217 4.64-.7-2.714-4.729 1.576.526 2.802zm-4.028 6.568.7 2.364 15.937-5.254-.7-2.451zm1.051 3.327.788 2.715 15.936-5.254-.788-2.714zm1.05 3.678.789 2.89 15.936-5.43-.788-2.714zm5.255-18.65 5.078-1.665-.613-2.626-5.166 1.663zm5.866 2.013-.613-2.714-5.078 1.663.613 2.802zm9.457 15.586q4.597-.13 4.728 2.89a2.78 2.78 0 0 1-1.138 2.276c-.788.438-1.664.526-2.452.176-1.4-.788-3.152-1.314-5.341-1.577-2.102-.35-4.028-.437-5.867-.262l-.087-.788c4.028-1.664 7.355-2.627 10.157-2.715"/></g><g class="com.sun.star.drawing.ClosedBezierShape"><path fill="none" d="M312.862 14.098h42.555v44.481h-42.555z" class="BoundingBox"/><path fill="#091f62" d="m334.14 28.37.962.175c2.014 1.051 3.153 1.927 3.503 2.715.35.7-.088 1.226-1.226 1.664-.087.875-.263 1.838-.35 2.802 0 .525-.088 1.4-.175 2.276-.088 1.751-.263 2.89-.526 3.24-.35.438-1.226.7-2.714.613-.788-.088-1.226-.175-1.401-.438-.175-.087-.263-.438-.175-.788l.087-.35-7.968-1.226c-.087.35-.175.788-.35 1.226s-.263.875-.613 1.313l2.364 1.576 5.166.788 1.401-1.488.876.087c2.101 1.139 3.24 2.014 3.502 2.627q.263.789-1.05 1.576c-.175.964-.263 2.014-.35 2.978a15 15 0 0 0-.176 2.276q-.13 2.364-.525 2.89c-.263.35-1.05.525-2.277.613-.963 0-1.576-.175-1.838-.438-.176-.175-.176-.7-.088-1.489V52.8l-6.392-.963v.263c-.175 1.138-.438 1.839-.7 2.101-.263.35-1.051.526-2.102.438-.963-.087-1.576-.35-1.751-.7-.088-.35 0-1.139.175-2.365l.087-.087.876-5.604c-1.138 1.226-2.277 2.364-3.59 3.415-1.226.963-2.364 1.751-3.503 2.364l-.437-.7c1.838-1.314 3.415-3.328 4.728-5.955 1.313-2.802 2.277-6.217 2.802-10.332.35-2.54.525-4.378.613-5.429.087-1.138 0-1.926-.175-2.364l.613-.35c.35.175.788.35 1.313.7.263.175.788.525 1.401.876l1.664 1.05 7.005 1.051zm-11.559-6.83c2.364-2.89 3.59-5.34 3.765-7.355h.788c1.752.7 3.153 1.226 4.116 1.664.875.438 1.488.788 1.839 1.138.35.263.35.526.175.788-.088.175-.35.35-.876.613 2.89.788 5.166 1.927 6.742 3.24 1.752 1.489 2.277 3.065 1.489 4.553-.7 1.051-1.401 1.576-2.19 1.576-.875 0-1.4-.613-1.75-1.926a16.6 16.6 0 0 0-2.19-3.94 12.8 12.8 0 0 0-3.414-3.065c-1.752 1.839-4.116 3.59-7.005 5.429-2.89 1.751-5.342 2.977-7.53 3.853l-.526-.7c2.189-1.314 4.378-3.24 6.567-5.868m10.157 2.102.963.175c.964.876 1.752 1.664 2.19 2.452s.437 1.313-.088 1.488l-7.618-1.225c-.7-.088-1.401-.176-2.014-.263-.525 0-1.226-.088-2.189-.088l-.35-1.576c.438.175 1.05.263 1.839.438s1.576.35 2.276.438l3.152.525zm-7.88 20.402-.876 6.655 6.392.963.876-6.655zm.087-9.72-.438 3.678 7.53 1.226.526-3.765zm.613-4.202-.438 3.152 7.53 1.138.439-3.065zm19.79-6.83c.875.438 1.4.7 1.663 1.05.175.263.263.613 0 .876-.175.263-.613.613-1.226 1.05l-1.926 13.923c-.175.788-.263 1.664-.35 2.452-.088.525-.088 1.138-.176 1.926-.175 1.84-.35 2.89-.613 3.153-.262.438-1.05.7-2.276.7-1.139-.087-1.751-.35-1.927-.788-.087-.35 0-1.4.263-3.24l.613-3.502 1.751-13.047c.088-1.138.175-2.19.175-3.327.088-.964 0-1.752-.087-2.19l.525-.437c1.576.525 2.715 1.05 3.59 1.4m2.626 33.974c-1.226.876-2.89 1.226-4.903 1.226-.35-.088-.526-.175-.526-.438-.087-.175-.175-.438-.175-.876-.087-.963-.263-1.75-.525-2.276-.438-.876-1.314-1.664-2.54-2.19l.263-.875c1.576.438 3.065.7 4.29.7 1.314-.087 1.927-.262 1.927-.612l3.503-25.831c.262-2.014.437-3.678.437-4.904 0-.7 0-1.488-.087-2.189l.525-.613c2.89.876 4.641 1.751 4.991 2.452.35.613-.087 1.313-1.226 2.189l-3.677 30.647c-.263 1.489-.963 2.714-2.277 3.59"/></g><g class="com.sun.star.drawing.ClosedBezierShape"><path fill="none" d="M391.318 43.956h46.496V90.54h-46.496z" class="BoundingBox"/><path fill="#091f62" d="M398.76 72.24c-1.05 1.4-2.451 2.276-4.29 2.451q-.657.132-1.313-.263c-.526-.175-.964-.525-1.314-.963a2.38 2.38 0 0 1-.525-1.488c0-.7.262-1.314.875-1.927.263-.263.526-.438.788-.613.263 0 .613-.087 1.051-.175.963-.087 1.839-.263 2.54-.613 1.225-.525 2.626-1.576 4.115-2.977l.876.7c-1.051 2.89-2.014 4.816-2.802 5.867m12.172-26.707c.875.525 1.663 1.05 2.364 1.488l7.268 4.116 1.05-2.014c.263-.526.438-.963.526-1.226.087-.263.087-.526 0-.7l.7-.439c2.802 2.014 4.378 3.415 4.729 4.291.35.613-.175.963-1.489.876l-.963 1.926 6.48 3.853 3.152-1.664.788.526c.788 1.225 1.4 2.189 1.751 3.064.263.7.438 1.226.438 1.664 0 .35-.175.525-.438.613a.54.54 0 0 1-.613-.088l-6.48-3.765c.526 1.576.614 2.54.35 2.802-.262.263-.787.175-1.663-.35a19 19 0 0 0-3.502.788c-.964.263-1.752.438-2.277.7l6.567 3.853 3.328-1.664.875.526c1.314 2.101 2.014 3.677 1.927 4.553-.088.7-.526.876-1.401.438l-27.145-15.936c-1.226-.701-2.014-1.226-2.54-1.49-.787-.437-1.575-.787-2.45-1.137l.262-1.489c.525.35 1.138.788 1.839 1.226.613.438 1.313.788 2.101 1.313l6.48 3.94.35-.875c.438-.963.7-1.839.876-2.54.262-1.4.087-2.801-.438-4.377-.963-.526-1.927-1.139-2.89-1.577-1.226-.7-2.189-1.225-2.802-1.4l.35-1.402c1.139.613 1.927 1.226 2.54 1.577m-6.918 23.379c.088-.175.088-.438 0-.7l.613-.35c2.715 1.925 4.116 3.414 4.203 4.377.088.7-.438 1.051-1.663.876l-1.489 2.89c-.263.437-.35.875-.263 1.138.088.262.263.438.613.7.613.438 1.401 1.051 2.452 1.664q1.839 1.182 3.415 1.839c1.138.35 2.189.35 2.977.087q1.708-.524 4.203-3.152l.876.7-.788 1.139c-.35.613-.7 1.138-.876 1.4-.35.526-.525.964-.7 1.314v.526c0 .087.175.262.262.613.263.525.35 1.05.35 1.313q0 .92-.788 1.839c-.437.613-1.313.7-2.714.35-1.05-.263-2.277-.875-3.853-1.664l-.963-.525c-2.101-1.226-3.59-2.101-4.64-2.714-1.664-1.051-3.065-1.927-4.291-2.802q-1.05-.92-1.051-1.84c0-.525.263-1.225.7-2.1l3.24-6.305c.088-.263.175-.526.175-.613m21.891-3.415 1.138.613c1.489 2.189 2.19 3.765 2.102 4.64 0 .701-.7.964-1.927.614l-2.189 4.64-.262.526c-.175.525-.438.875-.7 1.05-.439.176-1.052 0-2.015-.35-1.05-.525-1.751-.875-1.926-1.313q-.132-.394.263-1.314l-14.01-8.143-.088.088q-.394.788-.788.788c-.35 0-1.138-.175-2.19-.7-.962-.439-1.4-.876-1.575-1.227-.088-.262.087-.613.438-1.226l.35-.525 3.502-6.48c.175-.175.263-.437.438-.875.175-.35.263-.7.263-1.138l.963-.35c.613.787 1.226 1.488 1.751 2.276.526.613.963 1.313 1.401 2.014l13.047 7.618zm-17.775-2.452-1.226 2.54 13.922 8.143 1.314-2.54zm1.751-3.327-1.313 2.54 14.01 8.055 1.313-2.54zm4.904 14.272q1.313 1.839.525 3.678c-.35.613-.963 1.138-1.489 1.401-.437.263-.875.263-1.4.175-.438-.175-.789-.35-1.051-.788-.263-.35-.35-.788-.35-1.226.174-.613.087-1.4-.088-2.364-.175-1.4-.7-2.89-1.401-4.378l.788-.613c2.101 1.489 3.59 2.89 4.466 4.115m1.313-24.342c1.751 2.627 2.627 4.553 2.364 6.13-.175.963-.875 1.663-2.101 2.189l4.553 2.714c1.05-.7 2.101-1.664 3.152-2.802.876-.963 1.489-1.839 1.664-2.54zm9.282 32.573c1.05 1.401 1.576 3.065 1.663 4.904-.087.876-.35 1.576-.875 2.101-.526.526-1.051.876-1.664 1.051-.7.175-1.226.088-1.751-.175-.526-.263-.788-.788-.876-1.401v-1.664c.088-1.4.088-2.539 0-3.502-.263-1.664-.788-3.415-1.664-5.254l.788-.525c2.014 1.75 3.503 3.24 4.379 4.465"/></g></svg>